# Blender v2.77 (sub 0) OBJ File: 'backgroundPlane.blend'
# www.blender.org
mtllib backgroundPlane.mtl
o Plane
v 0.000000 0.471908 -8.605764
v 0.000000 0.188763 -5.387636
v 0.000000 0.047191 -2.048554
v 0.000000 0.000000 1.371165
v 3.606649 0.471908 -8.642417
v 7.213298 0.471908 -8.734050
v 10.819946 0.471908 -8.862334
v 0.000000 0.943815 -11.662619
v 0.000000 1.651677 -14.481230
v 0.000000 2.642683 -16.984625
v -3.606649 0.471908 -8.642417
v -7.213298 0.471908 -8.734050
v -10.819946 0.471908 -8.862334
v -3.460037 0.188763 -5.460942
v -3.269442 0.047191 -2.169508
v -3.049524 0.000000 1.195230
v -6.920074 0.188763 -5.644207
v -6.524222 0.047191 -2.486557
v -6.040404 0.000000 0.696751
v -10.380112 0.188763 -5.900778
v -9.749681 0.047191 -2.953881
v -8.913994 0.000000 -0.094953
v 3.460037 0.188763 -5.460942
v 6.920074 0.188763 -5.644207
v 10.380112 0.188763 -5.900778
v 3.269442 0.047191 -2.169508
v 6.524222 0.047191 -2.486557
v 9.749681 0.047191 -2.953881
v 3.049524 0.000000 1.195230
v 6.040404 0.000000 0.696751
v 8.913994 0.000000 -0.094953
v 3.694616 0.943815 -11.677280
v 3.738600 1.651676 -14.484896
v 3.753261 2.642683 -16.984625
v 7.389232 0.943815 -11.713933
v 7.477199 1.651677 -14.494059
v 7.506521 2.642683 -16.984625
v 11.083848 0.943815 -11.765247
v 11.215798 1.651676 -14.506887
v 11.259782 2.642683 -16.984625
v -3.694616 0.943815 -11.677280
v -7.389232 0.943815 -11.713933
v -11.083848 0.943815 -11.765247
v -3.738600 1.651676 -14.484896
v -7.477199 1.651676 -14.494059
v -11.215798 1.651676 -14.506887
v -3.753261 2.642682 -16.984625
v -7.506521 2.642682 -16.984625
v -11.259782 2.642682 -16.984625
v 0.000000 12.405269 -23.435543
v 0.000000 9.945451 -22.849094
v 0.000000 7.677346 -21.969425
v 0.000000 5.662890 -20.737885
v 3.606649 12.375774 -23.435543
v 7.213298 12.302039 -23.435543
v 10.819946 12.198810 -23.435543
v 0.000000 14.994861 -23.787411
v 0.000000 17.681784 -23.963345
v 0.000000 20.433596 -24.021988
v -3.606649 12.375774 -23.435543
v -7.213298 12.302039 -23.435543
v -10.819946 12.198810 -23.435543
v -3.694616 9.933654 -22.849094
v -3.738600 7.674397 -21.969425
v -3.753261 5.662890 -20.737885
v -7.389232 9.904160 -22.849094
v -7.477199 7.667023 -21.969425
v -7.506521 5.662890 -20.737885
v -11.083848 9.862867 -22.849094
v -11.215798 7.656700 -21.969425
v -11.259782 5.662890 -20.737885
v 3.694616 9.933653 -22.849094
v 7.389232 9.904159 -22.849094
v 11.083848 9.862866 -22.849094
v 3.738600 7.674397 -21.969425
v 7.477199 7.667023 -21.969425
v 11.215798 7.656700 -21.969425
v 3.753261 5.662890 -20.737885
v 7.506521 5.662890 -20.737885
v 11.259782 5.662890 -20.737885
v 3.460037 14.935873 -23.787411
v 3.269442 17.584454 -23.963345
v 3.049524 20.292023 -24.021988
v 6.920074 14.788402 -23.787411
v 6.524222 17.329329 -23.963345
v 6.040404 19.890900 -24.021988
v 10.380112 14.581942 -23.787411
v 9.749681 16.953278 -23.963345
v 8.913994 19.253826 -24.021988
v -3.460037 14.935873 -23.787411
v -6.920074 14.788402 -23.787411
v -10.380112 14.581943 -23.787411
v -3.269442 17.584454 -23.963345
v -6.524222 17.329329 -23.963345
v -9.749681 16.953278 -23.963345
v -3.049524 20.292023 -24.021988
v -6.040404 19.890900 -24.021988
v -8.913994 19.253826 -24.021988
v -15.013042 2.642682 -16.984625
v -14.954398 1.651676 -14.521547
v -14.778463 0.943815 -11.823892
v -14.426596 0.471908 -9.008946
v -13.840149 0.188763 -6.194001
v -12.960478 0.047191 -3.496345
v -11.728939 0.000000 -1.033267
v -7.975679 0.000000 2.719993
v -5.512601 0.000000 3.892887
v -2.814945 0.000000 4.596623
v 0.000000 0.000000 4.831203
v 2.814945 0.000000 4.596623
v 5.512601 0.000000 3.892887
v 7.975679 0.000000 2.719993
v 11.728939 0.000000 -1.033267
v 12.960478 0.047191 -3.496345
v 13.840149 0.188763 -6.194001
v 14.426596 0.471908 -9.008946
v 14.778463 0.943815 -11.823892
v 14.954398 1.651676 -14.521547
v 15.013042 2.642682 -16.984625
v 11.259782 3.964023 -19.095835
v 7.506521 3.964024 -19.095835
v 3.753261 3.964023 -19.095835
v 0.000000 3.964024 -19.095835
v -3.753261 3.964024 -19.095835
v -7.506521 3.964024 -19.095835
v -11.259782 3.964024 -19.095835
v 7.975679 21.518982 -24.021988
v 5.512601 22.462799 -24.021988
v 2.814945 23.029085 -24.021988
v 0.000000 23.217848 -24.021988
v -2.814945 23.029085 -24.021988
v -5.512601 22.462799 -24.021988
v -7.975679 21.518982 -24.021988
v -11.728939 18.498774 -24.021988
v -12.960478 16.516762 -23.963345
v -13.840149 14.345988 -23.787411
v -14.426596 12.080832 -23.435543
v -14.778463 9.815677 -22.849094
v -14.954398 7.644902 -21.969425
v -15.013042 5.662890 -20.737885
v 15.013042 5.662890 -20.737885
v 14.954398 7.644902 -21.969425
v 14.778463 9.815677 -22.849094
v 14.426596 12.080832 -23.435543
v 13.840149 14.345988 -23.787411
v 12.960478 16.516762 -23.963345
v 11.728939 18.498774 -24.021988
v -10.086888 0.000000 1.077942
v 10.086888 0.000000 1.077942
v -15.013042 3.964024 -19.095835
v 15.013042 3.964024 -19.095835
v -10.086888 20.197639 -24.021988
v 10.086888 20.197639 -24.021988
vt 0.3713 0.2784
vt 0.2821 0.2790
vt 0.2858 0.2151
vt 0.3713 0.2138
vt 0.2905 0.1518
vt 0.3713 0.1495
vt 0.2959 0.0888
vt 0.3713 0.0856
vt 0.3017 0.0261
vt 0.3713 0.0217
vt 0.1930 0.2807
vt 0.2002 0.2185
vt 0.2100 0.1576
vt 0.2220 0.0980
vt 0.2350 0.0390
vt 0.1038 0.2831
vt 0.1147 0.2232
vt 0.1302 0.1662
vt 0.1509 0.1126
vt 0.1741 0.0607
vt 0.0146 0.2858
vt 0.0291 0.2286
vt 0.0508 0.1763
vt 0.0813 0.1299
vt 0.1219 0.0910
vt 0.4569 0.2151
vt 0.4605 0.2790
vt 0.5425 0.2185
vt 0.5497 0.2807
vt 0.6280 0.2232
vt 0.6389 0.2831
vt 0.7136 0.2286
vt 0.7281 0.2858
vt 0.4522 0.1518
vt 0.5327 0.1576
vt 0.6124 0.1662
vt 0.6918 0.1763
vt 0.4467 0.0888
vt 0.5207 0.0980
vt 0.5918 0.1126
vt 0.6614 0.1299
vt 0.4409 0.0261
vt 0.5077 0.0390
vt 0.5686 0.0607
vt 0.6208 0.0910
vt 0.4627 0.3437
vt 0.3713 0.3435
vt 0.4638 0.4086
vt 0.3713 0.4085
vt 0.4641 0.4730
vt 0.3713 0.4730
vt 0.4641 0.5364
vt 0.3713 0.5364
vt 0.5541 0.3444
vt 0.5562 0.4088
vt 0.5570 0.4730
vt 0.5570 0.5364
vt 0.6454 0.3454
vt 0.6487 0.4090
vt 0.6498 0.4730
vt 0.6498 0.5364
vt 0.7368 0.3464
vt 0.7411 0.4093
vt 0.7426 0.4730
vt 0.7426 0.5364
vt 0.2800 0.3437
vt 0.1886 0.3444
vt 0.0972 0.3454
vt 0.0059 0.3464
vt 0.2789 0.4086
vt 0.1864 0.4088
vt 0.0940 0.4090
vt 0.0015 0.4093
vt 0.2785 0.4730
vt 0.1857 0.4730
vt 0.0929 0.4730
vt 0.0001 0.4730
vt 0.2785 0.5364
vt 0.1857 0.5364
vt 0.0929 0.5364
vt 0.0001 0.5364
vt 0.3713 0.7722
vt 0.2821 0.7716
vt 0.2800 0.7157
vt 0.3713 0.7160
vt 0.2789 0.6578
vt 0.3713 0.6579
vt 0.2785 0.5980
vt 0.3713 0.5980
vt 0.1930 0.7703
vt 0.1886 0.7152
vt 0.1864 0.6577
vt 0.1857 0.5980
vt 0.1038 0.7684
vt 0.0972 0.7144
vt 0.0940 0.6575
vt 0.0929 0.5980
vt 0.0146 0.7662
vt 0.0059 0.7136
vt 0.0015 0.6573
vt 0.0001 0.5980
vt 0.4627 0.7157
vt 0.4605 0.7716
vt 0.5541 0.7152
vt 0.5497 0.7703
vt 0.6454 0.7144
vt 0.6389 0.7684
vt 0.7368 0.7136
vt 0.7281 0.7662
vt 0.4638 0.6578
vt 0.5562 0.6577
vt 0.6487 0.6575
vt 0.7411 0.6573
vt 0.4641 0.5980
vt 0.5570 0.5980
vt 0.6498 0.5980
vt 0.7426 0.5980
vt 0.4569 0.8254
vt 0.3713 0.8264
vt 0.4522 0.8775
vt 0.3713 0.8793
vt 0.4467 0.9285
vt 0.3713 0.9311
vt 0.4409 0.9790
vt 0.3713 0.9825
vt 0.5425 0.8226
vt 0.5327 0.8728
vt 0.5207 0.9211
vt 0.5077 0.9686
vt 0.6280 0.8188
vt 0.6124 0.8658
vt 0.5918 0.9094
vt 0.5686 0.9512
vt 0.7136 0.8145
vt 0.6918 0.8578
vt 0.6614 0.8954
vt 0.6208 0.9268
vt 0.2858 0.8254
vt 0.2002 0.8226
vt 0.1147 0.8188
vt 0.0291 0.8145
vt 0.2905 0.8775
vt 0.2100 0.8728
vt 0.1302 0.8658
vt 0.0508 0.8578
vt 0.2959 0.9285
vt 0.2220 0.9211
vt 0.1509 0.9094
vt 0.0813 0.8954
vt 0.3017 0.9790
vt 0.2350 0.9686
vt 0.1741 0.9512
vt 0.1219 0.9268
vn 0.0000 0.9927 0.1205
vn -0.0022 0.9926 0.1216
vn -0.0023 0.9978 0.0661
vn 0.0000 0.9979 0.0651
vn -0.0017 0.9996 0.0285
vn 0.0000 0.9996 0.0280
vn -0.0006 1.0000 0.0069
vn 0.0000 1.0000 0.0067
vn 0.0000 1.0000 0.0000
vn -0.0038 0.9922 0.1244
vn -0.0042 0.9976 0.0687
vn -0.0034 0.9995 0.0303
vn -0.0012 1.0000 0.0074
vn -0.0049 0.9917 0.1287
vn -0.0057 0.9973 0.0728
vn -0.0049 0.9994 0.0336
vn -0.0019 0.9999 0.0085
vn -0.0052 0.9908 0.1353
vn -0.0063 0.9967 0.0806
vn -0.0060 0.9991 0.0417
vn -0.0038 0.9998 0.0157
vn 0.0023 0.9978 0.0661
vn 0.0022 0.9926 0.1216
vn 0.0042 0.9976 0.0687
vn 0.0038 0.9922 0.1244
vn 0.0057 0.9973 0.0728
vn 0.0049 0.9917 0.1287
vn 0.0063 0.9967 0.0806
vn 0.0052 0.9908 0.1353
vn 0.0017 0.9996 0.0285
vn 0.0034 0.9995 0.0303
vn 0.0049 0.9994 0.0336
vn 0.0060 0.9991 0.0417
vn 0.0006 1.0000 0.0069
vn 0.0012 1.0000 0.0074
vn 0.0019 0.9999 0.0085
vn 0.0038 0.9998 0.0157
vn 0.0015 0.9799 0.1996
vn 0.0000 0.9800 0.1987
vn 0.0007 0.9516 0.3074
vn 0.0000 0.9518 0.3068
vn 0.0002 0.8923 0.4515
vn 0.0000 0.8924 0.4513
vn 0.0000 0.7770 0.6294
vn 0.0026 0.9793 0.2021
vn 0.0012 0.9510 0.3091
vn 0.0002 0.8920 0.4520
vn 0.0033 0.9786 0.2058
vn 0.0015 0.9502 0.3115
vn 0.0003 0.8916 0.4528
vn 0.0034 0.9775 0.2110
vn 0.0016 0.9492 0.3146
vn 0.0003 0.8911 0.4537
vn -0.0015 0.9799 0.1996
vn -0.0026 0.9793 0.2021
vn -0.0033 0.9786 0.2058
vn -0.0034 0.9775 0.2110
vn -0.0007 0.9516 0.3074
vn -0.0012 0.9510 0.3091
vn -0.0015 0.9502 0.3115
vn -0.0016 0.9492 0.3146
vn -0.0002 0.8923 0.4515
vn -0.0002 0.8920 0.4520
vn -0.0003 0.8916 0.4528
vn -0.0003 0.8911 0.4537
vn 0.0000 0.1841 0.9829
vn -0.0027 0.1856 0.9826
vn -0.0018 0.2994 0.9541
vn 0.0000 0.2980 0.9545
vn -0.0008 0.4446 0.8957
vn 0.0000 0.4438 0.8961
vn -0.0002 0.6123 0.7906
vn 0.0000 0.6121 0.7908
vn -0.0047 0.1899 0.9818
vn -0.0031 0.3030 0.9530
vn -0.0014 0.4467 0.8947
vn -0.0003 0.6129 0.7901
vn -0.0061 0.1962 0.9805
vn -0.0040 0.3082 0.9513
vn -0.0018 0.4498 0.8931
vn -0.0004 0.6138 0.7894
vn -0.0064 0.2071 0.9783
vn -0.0042 0.3162 0.9487
vn -0.0019 0.4542 0.8909
vn -0.0004 0.6150 0.7885
vn 0.0018 0.2994 0.9541
vn 0.0027 0.1856 0.9826
vn 0.0031 0.3030 0.9530
vn 0.0047 0.1899 0.9818
vn 0.0040 0.3082 0.9513
vn 0.0061 0.1962 0.9805
vn 0.0042 0.3162 0.9487
vn 0.0064 0.2071 0.9783
vn 0.0008 0.4446 0.8957
vn 0.0014 0.4467 0.8947
vn 0.0018 0.4498 0.8931
vn 0.0019 0.4542 0.8909
vn 0.0002 0.6123 0.7906
vn 0.0003 0.6129 0.7901
vn 0.0004 0.6138 0.7894
vn 0.0004 0.6150 0.7885
vn 0.0029 0.1017 0.9948
vn 0.0000 0.1003 0.9949
vn 0.0022 0.0441 0.9990
vn 0.0000 0.0433 0.9991
vn 0.0007 0.0107 0.9999
vn 0.0000 0.0104 0.9999
vn 0.0000 0.0000 1.0000
vn 0.0053 0.1057 0.9944
vn 0.0042 0.0468 0.9989
vn 0.0015 0.0115 0.9999
vn 0.0071 0.1120 0.9937
vn 0.0062 0.0519 0.9986
vn 0.0023 0.0132 0.9999
vn 0.0078 0.1248 0.9921
vn 0.0074 0.0652 0.9978
vn 0.0049 0.0247 0.9997
vn -0.0029 0.1017 0.9948
vn -0.0053 0.1057 0.9944
vn -0.0071 0.1120 0.9937
vn -0.0078 0.1248 0.9921
vn -0.0022 0.0441 0.9990
vn -0.0042 0.0468 0.9989
vn -0.0062 0.0519 0.9986
vn -0.0074 0.0652 0.9978
vn -0.0007 0.0107 0.9999
vn -0.0015 0.0115 0.9999
vn -0.0023 0.0132 0.9999
vn -0.0049 0.0247 0.9997
usemtl character_material.001
s 1
f 1/1/1 11/2/2 14/3/3 2/4/4
f 2/4/4 14/3/3 15/5/5 3/6/6
f 3/6/6 15/5/5 16/7/7 4/8/8
f 4/8/8 16/7/7 108/9/9 109/10/9
f 11/2/2 12/11/10 17/12/11 14/3/3
f 14/3/3 17/12/11 18/13/12 15/5/5
f 15/5/5 18/13/12 19/14/13 16/7/7
f 16/7/7 19/14/13 107/15/9 108/9/9
f 12/11/10 13/16/14 20/17/15 17/12/11
f 17/12/11 20/17/15 21/18/16 18/13/12
f 18/13/12 21/18/16 22/19/17 19/14/13
f 19/14/13 22/19/17 106/20/9 107/15/9
f 13/16/14 102/21/18 103/22/19 20/17/15
f 20/17/15 103/22/19 104/23/20 21/18/16
f 21/18/16 104/23/20 105/24/21 22/19/17
f 22/19/17 105/24/21 148/25/9 106/20/9
f 1/1/1 2/4/4 23/26/22 5/27/23
f 5/27/23 23/26/22 24/28/24 6/29/25
f 6/29/25 24/28/24 25/30/26 7/31/27
f 7/31/27 25/30/26 115/32/28 116/33/29
f 2/4/4 3/6/6 26/34/30 23/26/22
f 23/26/22 26/34/30 27/35/31 24/28/24
f 24/28/24 27/35/31 28/36/32 25/30/26
f 25/30/26 28/36/32 114/37/33 115/32/28
f 3/6/6 4/8/8 29/38/34 26/34/30
f 26/34/30 29/38/34 30/39/35 27/35/31
f 27/35/31 30/39/35 31/40/36 28/36/32
f 28/36/32 31/40/36 113/41/37 114/37/33
f 4/8/8 109/10/9 110/42/9 29/38/34
f 29/38/34 110/42/9 111/43/9 30/39/35
f 30/39/35 111/43/9 112/44/9 31/40/36
f 31/40/36 112/44/9 149/45/9 113/41/37
f 1/1/1 5/27/23 32/46/38 8/47/39
f 8/47/39 32/46/38 33/48/40 9/49/41
f 9/49/41 33/48/40 34/50/42 10/51/43
f 10/51/43 34/50/42 122/52/44 123/53/44
f 5/27/23 6/29/25 35/54/45 32/46/38
f 32/46/38 35/54/45 36/55/46 33/48/40
f 33/48/40 36/55/46 37/56/47 34/50/42
f 34/50/42 37/56/47 121/57/44 122/52/44
f 6/29/25 7/31/27 38/58/48 35/54/45
f 35/54/45 38/58/48 39/59/49 36/55/46
f 36/55/46 39/59/49 40/60/50 37/56/47
f 37/56/47 40/60/50 120/61/44 121/57/44
f 7/31/27 116/33/29 117/62/51 38/58/48
f 38/58/48 117/62/51 118/63/52 39/59/49
f 39/59/49 118/63/52 119/64/53 40/60/50
f 40/60/50 119/64/53 151/65/44 120/61/44
f 1/1/1 8/47/39 41/66/54 11/2/2
f 11/2/2 41/66/54 42/67/55 12/11/10
f 12/11/10 42/67/55 43/68/56 13/16/14
f 13/16/14 43/68/56 101/69/57 102/21/18
f 8/47/39 9/49/41 44/70/58 41/66/54
f 41/66/54 44/70/58 45/71/59 42/67/55
f 42/67/55 45/71/59 46/72/60 43/68/56
f 43/68/56 46/72/60 100/73/61 101/69/57
f 9/49/41 10/51/43 47/74/62 44/70/58
f 44/70/58 47/74/62 48/75/63 45/71/59
f 45/71/59 48/75/63 49/76/64 46/72/60
f 46/72/60 49/76/64 99/77/65 100/73/61
f 10/51/43 123/53/44 124/78/44 47/74/62
f 47/74/62 124/78/44 125/79/44 48/75/63
f 48/75/63 125/79/44 126/80/44 49/76/64
f 49/76/64 126/80/44 150/81/44 99/77/65
f 50/82/66 60/83/67 63/84/68 51/85/69
f 51/85/69 63/84/68 64/86/70 52/87/71
f 52/87/71 64/86/70 65/88/72 53/89/73
f 53/89/73 65/88/72 124/78/44 123/53/44
f 60/83/67 61/90/74 66/91/75 63/84/68
f 63/84/68 66/91/75 67/92/76 64/86/70
f 64/86/70 67/92/76 68/93/77 65/88/72
f 65/88/72 68/93/77 125/79/44 124/78/44
f 61/90/74 62/94/78 69/95/79 66/91/75
f 66/91/75 69/95/79 70/96/80 67/92/76
f 67/92/76 70/96/80 71/97/81 68/93/77
f 68/93/77 71/97/81 126/80/44 125/79/44
f 62/94/78 137/98/82 138/99/83 69/95/79
f 69/95/79 138/99/83 139/100/84 70/96/80
f 70/96/80 139/100/84 140/101/85 71/97/81
f 71/97/81 140/101/85 150/81/44 126/80/44
f 50/82/66 51/85/69 72/102/86 54/103/87
f 54/103/87 72/102/86 73/104/88 55/105/89
f 55/105/89 73/104/88 74/106/90 56/107/91
f 56/107/91 74/106/90 143/108/92 144/109/93
f 51/85/69 52/87/71 75/110/94 72/102/86
f 72/102/86 75/110/94 76/111/95 73/104/88
f 73/104/88 76/111/95 77/112/96 74/106/90
f 74/106/90 77/112/96 142/113/97 143/108/92
f 52/87/71 53/89/73 78/114/98 75/110/94
f 75/110/94 78/114/98 79/115/99 76/111/95
f 76/111/95 79/115/99 80/116/100 77/112/96
f 77/112/96 80/116/100 141/117/101 142/113/97
f 53/89/73 123/53/44 122/52/44 78/114/98
f 78/114/98 122/52/44 121/57/44 79/115/99
f 79/115/99 121/57/44 120/61/44 80/116/100
f 80/116/100 120/61/44 151/65/44 141/117/101
f 50/82/66 54/103/87 81/118/102 57/119/103
f 57/119/103 81/118/102 82/120/104 58/121/105
f 58/121/105 82/120/104 83/122/106 59/123/107
f 59/123/107 83/122/106 129/124/108 130/125/108
f 54/103/87 55/105/89 84/126/109 81/118/102
f 81/118/102 84/126/109 85/127/110 82/120/104
f 82/120/104 85/127/110 86/128/111 83/122/106
f 83/122/106 86/128/111 128/129/108 129/124/108
f 55/105/89 56/107/91 87/130/112 84/126/109
f 84/126/109 87/130/112 88/131/113 85/127/110
f 85/127/110 88/131/113 89/132/114 86/128/111
f 86/128/111 89/132/114 127/133/108 128/129/108
f 56/107/91 144/109/93 145/134/115 87/130/112
f 87/130/112 145/134/115 146/135/116 88/131/113
f 88/131/113 146/135/116 147/136/117 89/132/114
f 89/132/114 147/136/117 153/137/108 127/133/108
f 50/82/66 57/119/103 90/138/118 60/83/67
f 60/83/67 90/138/118 91/139/119 61/90/74
f 61/90/74 91/139/119 92/140/120 62/94/78
f 62/94/78 92/140/120 136/141/121 137/98/82
f 57/119/103 58/121/105 93/142/122 90/138/118
f 90/138/118 93/142/122 94/143/123 91/139/119
f 91/139/119 94/143/123 95/144/124 92/140/120
f 92/140/120 95/144/124 135/145/125 136/141/121
f 58/121/105 59/123/107 96/146/126 93/142/122
f 93/142/122 96/146/126 97/147/127 94/143/123
f 94/143/123 97/147/127 98/148/128 95/144/124
f 95/144/124 98/148/128 134/149/129 135/145/125
f 59/123/107 130/125/108 131/150/108 96/146/126
f 96/146/126 131/150/108 132/151/108 97/147/127
f 97/147/127 132/151/108 133/152/108 98/148/128
f 98/148/128 133/152/108 152/153/108 134/149/129
