# Blender v2.77 (sub 0) OBJ File: 'clouds.blend'
# www.blender.org
mtllib clouds.mtl
o Plane
v -0.799965 0.623798 -0.486911
v -1.354470 -0.136375 -0.486911
v -1.092790 -0.136375 -0.486911
v -0.792046 -0.090456 -0.486911
v -0.610571 0.818091 -0.486911
v -0.284517 0.938197 -0.486911
v 0.146358 0.840934 -0.486911
v 0.473516 0.477383 -0.486911
v 0.692620 0.585054 -0.486911
v 0.998217 0.585054 -0.486911
v 1.370870 0.492680 -0.486911
v 1.559799 0.272432 -0.486911
v 1.559799 0.027132 -0.486911
v 1.369945 -0.109107 -0.486911
v 0.980269 -0.175026 -0.486911
v 0.685494 -0.175026 -0.486911
v 0.405462 -0.057695 -0.486911
v 0.133497 -0.188011 -0.486911
v -0.285921 -0.188011 -0.486911
v -0.584686 -0.116194 -0.486911
v -1.617493 -0.028150 -0.486911
v -1.679525 0.146420 -0.486911
v -1.512563 0.397818 -0.486911
v -1.202474 0.453355 -0.486911
v -0.950886 0.295768 -0.486911
v -0.799965 0.157235 -0.792737
v -1.354470 0.131678 -0.093816
v -1.092790 0.131678 -0.093816
v -0.792046 0.134174 -0.162082
v -0.610571 0.162600 -0.939462
v -0.284517 0.166169 -1.037069
v 0.146358 0.163435 -0.962289
v 0.473516 0.158159 -0.818021
v 0.692620 0.164259 -0.984837
v 0.971108 0.164259 -0.984837
v 1.370870 0.158718 -0.833308
v 1.559799 0.150670 -0.613207
v 1.559799 0.140566 -0.336893
v 1.369945 0.133160 -0.134354
v 0.980269 0.129577 -0.036355
v 0.685494 0.129577 -0.036355
v 0.405462 0.135955 -0.210785
v 0.133497 0.128871 -0.017052
v -0.285921 0.128871 -0.017052
v -0.584686 0.132775 -0.123817
v -1.617492 0.137561 -0.254708
v -1.512563 0.155252 -0.738509
v -1.202474 0.157281 -0.794009
v -0.950886 0.151523 -0.636527
v 1.613036 0.139900 -0.480981
v 0.473516 0.392791 -0.744194
v 0.692620 0.497558 -0.874151
v 0.998217 0.497558 -0.874151
v 1.370870 0.402391 -0.756103
v 1.559799 0.264160 -0.584635
v 0.473516 0.407689 -0.255349
v 0.692620 0.484465 -0.179860
v 0.998217 0.484465 -0.179860
v 1.370870 0.418597 -0.244624
v 1.559799 0.261547 -0.399041
v 0.473516 -0.012150 -0.745926
v 0.692620 -0.058489 -0.897955
v 0.998217 -0.058489 -0.897955
v 1.370870 -0.016396 -0.759858
v 1.559799 0.044745 -0.559268
v -0.799965 -0.016345 -0.703563
v -0.610571 -0.077460 -0.818849
v -0.284517 -0.118117 -0.895542
v 0.146358 -0.086969 -0.836785
v -0.950886 0.048722 -0.580824
v -1.512563 0.008172 -0.637528
v -1.202474 -0.015180 -0.680860
v -0.799965 0.346026 -0.732718
v -0.610571 0.614550 -0.852618
v -0.284517 0.685420 -0.923588
v 0.146358 0.631124 -0.869216
v -0.950886 0.232606 -0.625154
v -1.512563 0.276341 -0.681251
v -1.202474 0.331879 -0.681251
v -0.799965 0.359959 -0.260804
v -0.610571 0.627874 -0.140275
v -0.284517 0.698338 -0.068856
v 0.146358 0.644354 -0.123572
v -0.950886 0.247188 -0.369048
v -1.472763 0.280488 -0.288016
v -1.162673 0.336025 -0.288016
v -1.354469 -0.045513 -0.260684
v -1.092790 -0.045513 -0.260684
v -0.792046 -0.012678 -0.308439
v 1.539319 0.056034 -0.391799
v 1.369945 -0.026015 -0.289041
v 0.980269 -0.073150 -0.220487
v 0.685494 -0.073150 -0.220487
v 0.405462 0.010747 -0.342509
v 0.133497 -0.082435 -0.206984
v -0.285921 -0.082435 -0.206984
v -0.584685 -0.031083 -0.281671
v -1.617492 0.002986 -0.373235
v 1.155656 0.309348 -0.198411
v 0.811352 0.254854 -0.139786
vt 0.9400 0.5928
vt 0.9446 0.6177
vt 0.8890 0.6626
vt 0.8726 0.6025
vt 0.8074 0.7044
vt 0.7879 0.6150
vt 0.7395 0.7251
vt 0.7134 0.6288
vt 0.6555 0.7348
vt 0.6467 0.6410
vt 0.8365 0.7941
vt 0.7551 0.8158
vt 0.6749 0.8147
vt 0.9412 0.7152
vt 0.9756 0.6304
vt 0.9812 0.5851
vt 0.8709 0.5466
vt 0.9384 0.5699
vt 0.7813 0.5375
vt 0.7024 0.5437
vt 0.6218 0.5592
vt 0.7310 0.4729
vt 0.6814 0.4321
vt 0.5881 0.4665
vt 0.8311 0.5057
vt 0.9632 0.5382
vt 0.9046 0.4730
vt 0.9983 0.2621
vt 0.9693 0.2833
vt 0.9241 0.2239
vt 0.9576 0.1800
vt 0.8369 0.1711
vt 0.8531 0.1047
vt 0.7600 0.1512
vt 0.7712 0.0850
vt 0.6748 0.1561
vt 0.6884 0.0960
vt 0.9052 0.2936
vt 0.8071 0.2770
vt 0.7293 0.2618
vt 0.6361 0.2494
vt 0.9633 0.3024
vt 0.9999 0.3098
vt 0.2912 0.0293
vt 0.2939 0.0893
vt 0.2294 0.0919
vt 0.2308 0.0553
vt 0.4653 0.0001
vt 0.5912 0.0420
vt 0.5669 0.1235
vt 0.4514 0.0879
vt 0.3617 0.0052
vt 0.3603 0.0838
vt 0.5410 0.2231
vt 0.4269 0.1982
vt 0.3384 0.1796
vt 0.2710 0.1617
vt 0.0543 0.0430
vt 0.1459 0.0240
vt 0.1469 0.0823
vt 0.0676 0.0915
vt 0.1747 0.1458
vt 0.1081 0.1382
vt 0.0001 0.1159
vt 0.0480 0.1286
vt 0.3393 0.7025
vt 0.3090 0.7889
vt 0.2331 0.7801
vt 0.2303 0.7195
vt 0.4416 0.6837
vt 0.5125 0.6691
vt 0.5372 0.7500
vt 0.4527 0.7639
vt 0.3890 0.6938
vt 0.3884 0.7665
vt 0.5794 0.8606
vt 0.4557 0.8953
vt 0.3557 0.8736
vt 0.2920 0.8420
vt 0.2293 0.8118
vt 0.0738 0.7296
vt 0.1351 0.7220
vt 0.1381 0.7760
vt 0.0647 0.7753
vt 0.1336 0.8324
vt 0.0500 0.8066
vt 0.0001 0.7366
vt 0.2215 0.6710
vt 0.2846 0.6370
vt 0.4227 0.6107
vt 0.5033 0.5898
vt 0.3647 0.6317
vt 0.4905 0.4599
vt 0.3687 0.4818
vt 0.2904 0.5371
vt 0.2427 0.5784
vt 0.1507 0.5877
vt 0.0642 0.6767
vt 0.1427 0.6688
vt 0.0745 0.6032
vt 0.0089 0.6655
vt 0.3873 0.3641
vt 0.2999 0.3157
vt 0.3203 0.2469
vt 0.4085 0.2809
vt 0.5131 0.3893
vt 0.5248 0.3059
vt 0.6251 0.3030
vt 0.6143 0.3615
vt 0.7165 0.3395
vt 0.7004 0.4181
vt 0.7969 0.3522
vt 0.7894 0.4317
vt 0.9038 0.3487
vt 0.9113 0.4137
vt 0.9606 0.3301
vt 0.9790 0.3562
vt 0.2398 0.2900
vt 0.2561 0.2259
vt 0.1440 0.2830
vt 0.1619 0.2129
vt 0.0690 0.2584
vt 0.0943 0.1963
vt 0.0059 0.1911
vt 0.0388 0.1537
vn 0.7188 0.6714 -0.1804
vn 0.2734 0.9284 -0.2515
vn 0.0000 0.9754 -0.2204
vn -0.4785 0.8484 -0.2265
vn 0.0000 0.3152 -0.9490
vn -0.5855 0.2505 -0.7710
vn 0.3486 0.2754 -0.8959
vn 0.7410 0.1907 -0.6438
vn 0.9497 0.2255 -0.2174
vn 0.7302 0.6616 0.1703
vn 0.2229 0.9290 0.2954
vn 0.0000 0.9503 0.3113
vn -0.4128 0.8684 0.2746
vn 0.0000 0.1719 0.9851
vn -0.4604 0.3054 0.8335
vn 0.1810 0.0587 0.9817
vn 0.7147 0.2718 0.6445
vn 0.9391 0.2581 0.2269
vn 0.7313 -0.2816 -0.6213
vn 0.3450 -0.3305 -0.8785
vn 0.0000 -0.3634 -0.9316
vn -0.5784 -0.3059 -0.7563
vn 0.1846 -0.9412 -0.2829
vn 0.0000 -0.9621 -0.2728
vn -0.3710 -0.8922 -0.2575
vn 0.5491 -0.7966 -0.2530
vn 0.9175 -0.2844 -0.2782
vn -0.6730 -0.3434 -0.6551
vn 0.1516 -0.4416 -0.8843
vn -0.2557 -0.4323 -0.8647
vn -0.5643 -0.3734 -0.7363
vn 0.3474 -0.3986 -0.8488
vn 0.3427 -0.9227 -0.1766
vn 0.0508 -0.9745 -0.2187
vn -0.1917 -0.9720 -0.1362
vn -0.2598 -0.9489 -0.1792
vn -0.5489 -0.7968 -0.2525
vn -0.1498 -0.5504 -0.8213
vn 0.4448 -0.4683 -0.7634
vn 0.2558 -0.5861 -0.7688
vn -0.0766 -0.8174 -0.5709
vn -0.7671 -0.3221 -0.5547
vn -0.3420 -0.8311 -0.4386
vn -0.7993 0.4494 -0.3989
vn 0.1811 0.8563 -0.4837
vn -0.2947 0.8307 -0.4724
vn -0.7563 0.5141 -0.4047
vn 0.6753 0.6700 -0.3084
vn 0.4375 0.2079 -0.8749
vn 0.1582 0.2023 -0.9665
vn -0.2663 0.1947 -0.9440
vn -0.6466 0.1704 -0.7435
vn -0.6871 0.1858 -0.7024
vn -0.1502 0.8384 -0.5240
vn 0.4475 0.7819 -0.4341
vn 0.4276 0.3948 -0.8132
vn -0.1229 0.4947 -0.8603
vn -0.7873 0.5229 -0.3268
vn -0.8107 0.2502 -0.5292
vn -0.7976 0.4465 0.4056
vn 0.1811 0.8586 0.4796
vn -0.2947 0.8329 0.4684
vn -0.7557 0.5132 0.4069
vn 0.0726 0.1431 0.9870
vn 0.6769 0.6719 0.3007
vn 0.5072 0.1119 0.8546
vn -0.4382 0.1217 0.8906
vn -0.2469 0.7582 0.6035
vn -0.2792 0.0550 0.9586
vn -0.1501 0.8381 0.5244
vn -0.0700 0.7209 0.6895
vn 0.4928 0.6820 0.5403
vn 0.4865 0.7976 0.3566
vn -0.7471 0.4962 0.4422
vn -0.6635 0.7196 0.2047
vn -0.4146 0.5827 0.6990
vn -0.2746 -0.6537 0.7052
vn 0.0000 -0.6685 0.7437
vn 0.4919 -0.6016 0.6294
vn -0.4422 -0.6222 0.6460
vn 0.0000 -0.6723 0.7402
vn 0.1966 -0.6701 0.7158
vn 0.6186 -0.5415 0.5692
vn -0.1439 -0.6923 0.7071
vn 0.1767 -0.6841 0.7077
vn 0.0000 -0.6856 0.7280
vn -0.4128 -0.6150 0.6718
vn -0.9455 -0.2152 0.2444
vn -0.9383 -0.3334 0.0913
vn -0.3326 -0.8876 0.3186
vn 0.0000 -0.9280 0.3727
vn 0.1497 -0.9127 0.3803
vn -0.1223 -0.9136 0.3878
vn -0.2311 -0.9055 0.3559
vn 0.0000 -0.9357 0.3529
vn 0.4288 -0.8358 0.3428
vn -0.3836 -0.8531 0.3537
vn 0.0000 -0.9340 0.3572
vn 0.1650 -0.9163 0.3650
vn 0.5574 -0.7618 0.3302
vn 0.8534 -0.4158 0.3144
vn 0.4492 0.3153 0.8359
vn 0.2005 0.5408 0.8169
vn 0.0174 0.3603 0.9327
vn -0.2675 0.3728 0.8885
vn 0.0000 0.6367 0.7711
vn 0.3697 0.3419 0.8640
usemtl cloud1
s off
f 12/1/1 55/2/1 54/3/1 11/4/1
f 11/4/2 54/3/2 53/5/2 10/6/2
f 10/6/3 53/5/3 52/7/3 9/8/3
f 9/8/4 52/7/4 51/9/4 8/10/4
f 35/11/5 34/12/5 52/7/5 53/5/5
f 34/12/6 33/13/6 51/9/6 52/7/6
f 36/14/7 35/11/7 53/5/7 54/3/7
f 37/15/8 36/14/8 54/3/8 55/2/8
f 12/1/9 50/16/9 37/15/9 55/2/9
f 11/4/10 59/17/10 60/18/10 12/1/10
f 10/6/11 58/19/11 59/17/11 11/4/11
f 9/8/12 57/20/12 58/19/12 10/6/12
f 8/10/13 56/21/13 57/20/13 9/8/13
f 58/19/14 57/20/14 100/22/14
f 41/23/15 57/20/15 56/21/15 42/24/15
f 59/17/16 58/19/16 99/25/16
f 38/26/17 60/18/17 59/17/17 39/27/17
f 12/1/18 60/18/18 38/26/18 50/16/18
f 37/28/19 65/29/19 64/30/19 36/31/19
f 36/31/20 64/30/20 63/32/20 35/33/20
f 35/33/21 63/32/21 62/34/21 34/35/21
f 34/35/22 62/34/22 61/36/22 33/37/22
f 14/38/23 15/39/23 63/32/23 64/30/23
f 15/39/24 16/40/24 62/34/24 63/32/24
f 16/40/25 17/41/25 61/36/25 62/34/25
f 13/42/26 14/38/26 64/30/26 65/29/26
f 50/43/27 13/42/27 65/29/27 37/28/27
f 26/44/28 66/45/28 70/46/28 49/47/28
f 31/48/29 32/49/29 69/50/29 68/51/29
f 30/52/30 31/48/30 68/51/30 67/53/30
f 26/44/31 30/52/31 67/53/31 66/45/31
f 32/49/32 33/37/32 61/36/32 69/50/32
f 18/54/33 69/50/33 61/36/33 17/41/33
f 18/54/34 19/55/34 68/51/34 69/50/34
f 19/55/35 20/56/35 67/53/35 68/51/35
f 20/56/36 4/57/36 66/45/36 67/53/36
f 66/45/37 4/57/37 70/46/37
f 47/58/38 48/59/38 72/60/38 71/61/38
f 48/59/39 49/47/39 70/46/39 72/60/39
f 3/62/40 72/60/40 70/46/40 4/57/40
f 3/62/41 2/63/41 71/61/41 72/60/41
f 22/64/42 47/58/42 71/61/42 21/65/42
f 21/65/43 71/61/43 2/63/43
f 1/66/44 73/67/44 77/68/44 25/69/44
f 6/70/45 7/71/45 76/72/45 75/73/45
f 5/74/46 6/70/46 75/73/46 74/75/46
f 1/66/47 5/74/47 74/75/47 73/67/47
f 7/71/48 8/10/48 51/9/48 76/72/48
f 32/76/49 76/72/49 51/9/49 33/13/49
f 32/76/50 31/77/50 75/73/50 76/72/50
f 31/77/51 30/78/51 74/75/51 75/73/51
f 30/78/52 26/79/52 73/67/52 74/75/52
f 49/80/53 77/68/53 73/67/53 26/79/53
f 23/81/54 24/82/54 79/83/54 78/84/54
f 24/82/55 25/69/55 77/68/55 79/83/55
f 48/85/56 79/83/56 77/68/56 49/80/56
f 48/85/57 47/86/57 78/84/57 79/83/57
f 23/81/58 78/84/58 22/87/58
f 47/86/59 22/87/59 78/84/59
f 25/69/60 84/88/60 80/89/60 1/66/60
f 7/71/61 6/70/61 82/90/61 83/91/61
f 6/70/62 5/74/62 81/92/62 82/90/62
f 5/74/63 1/66/63 80/89/63 81/92/63
f 43/93/64 83/91/64 82/90/64 44/94/64
f 7/71/65 83/91/65 56/21/65 8/10/65
f 43/93/66 42/24/66 56/21/66 83/91/66
f 45/95/67 81/92/67 80/89/67 29/96/67
f 28/97/68 29/96/68 80/89/68 84/88/68
f 44/94/69 82/90/69 81/92/69 45/95/69
f 24/82/70 23/81/70 85/98/70 86/99/70
f 28/97/71 86/99/71 85/98/71 27/100/71
f 84/88/72 86/99/72 28/97/72
f 24/82/73 86/99/73 84/88/73 25/69/73
f 23/81/74 22/87/74 85/98/74
f 22/87/75 46/101/75 85/98/75
f 46/101/76 27/100/76 85/98/76
f 44/102/77 45/103/77 97/104/77 96/105/77
f 43/106/78 44/102/78 96/105/78 95/107/78
f 43/106/79 95/107/79 94/108/79 42/109/79
f 42/109/80 94/108/80 93/110/80 41/111/80
f 41/111/81 93/110/81 92/112/81 40/113/81
f 40/113/82 92/112/82 91/114/82 39/115/82
f 39/115/83 91/114/83 90/116/83 38/117/83
f 45/103/84 29/118/84 89/119/84 97/104/84
f 29/118/85 28/120/85 88/121/85 89/119/85
f 28/120/86 27/122/86 87/123/86 88/121/86
f 27/122/87 46/124/87 98/125/87 87/123/87
f 22/64/88 98/125/88 46/124/88
f 22/64/89 21/65/89 98/125/89
f 21/65/90 2/63/90 87/123/90 98/125/90
f 2/63/91 3/62/91 88/121/91 87/123/91
f 3/62/92 4/57/92 89/119/92 88/121/92
f 4/57/93 20/56/93 97/104/93 89/119/93
f 20/56/94 19/55/94 96/105/94 97/104/94
f 19/55/95 18/54/95 95/107/95 96/105/95
f 18/54/96 17/41/96 94/108/96 95/107/96
f 17/41/97 16/40/97 93/110/97 94/108/97
f 16/40/98 15/39/98 92/112/98 93/110/98
f 15/39/99 14/38/99 91/114/99 92/112/99
f 14/38/100 13/42/100 90/116/100 91/114/100
f 13/42/101 50/43/101 38/117/101 90/116/101
f 58/19/102 40/113/102 99/25/102
f 40/113/103 39/27/103 99/25/103
f 59/17/104 99/25/104 39/27/104
f 58/19/105 100/22/105 40/113/105
f 41/111/106 40/113/106 100/22/106
f 57/20/107 41/23/107 100/22/107
