# Blender v2.77 (sub 0) OBJ File: 'coin50.blend'
# www.blender.org
mtllib coin50.mtl
o GoldCoin
v 0.165853 0.050999 -0.017962
v 0.166039 -0.050551 -0.017962
v 0.050999 -0.165853 -0.017962
v -0.050551 -0.166039 -0.017962
v -0.165853 -0.050999 -0.017962
v -0.166039 0.050551 -0.017962
v -0.050999 0.165853 -0.017962
v 0.050551 0.166039 -0.017962
v 0.165853 0.051000 0.017962
v 0.166039 -0.050551 0.017962
v 0.050999 -0.165853 0.017962
v -0.050551 -0.166039 0.017962
v -0.165853 -0.050999 0.017962
v -0.166039 0.050551 0.017962
v -0.050999 0.165853 0.017962
v 0.050551 0.166039 0.017962
v 0.000000 0.000000 -0.017962
v -0.000000 -0.000000 0.017962
vt 0.5022 0.5965
vt 0.1049 0.7182
vt 0.1047 0.4750
vt 0.5020 0.5964
vt 0.8994 0.4749
vt 0.8993 0.7181
vt 0.3805 0.1992
vt 0.6236 0.1991
vt 0.6237 0.1991
vt 0.3805 0.1989
vt 0.8995 0.4749
vt 0.1047 0.4747
vt 0.8996 0.7180
vt 0.1045 0.7179
vt 0.6238 0.9938
vt 0.3803 0.9937
vt 0.3806 0.9940
vt 0.6235 0.9939
vt 0.5000 0.1562
vt 0.5000 0.0000
vt 1.0000 0.0000
vt 1.0000 0.1562
vt 0.0000 0.1562
vt 0.0000 0.0000
vt 1.0000 0.0000
vt 1.0000 0.1562
vt 0.5000 0.1563
vt 0.5000 0.0000
vt 1.0000 -0.0000
vt 1.0000 0.1562
vt 0.0000 0.1562
vt 0.0000 0.0000
vt 1.0000 0.0000
vt 1.0000 0.1562
vt 0.5000 0.1562
vt 0.5000 0.0000
vt 1.0000 0.0000
vt 1.0000 0.1562
vt 0.0000 0.1562
vt 0.0000 0.0000
vt 1.0000 0.0000
vt 1.0000 0.1562
vt 0.5000 0.1562
vt 0.5000 0.0000
vt 1.0000 0.0000
vt 1.0000 0.1562
vt 1.0000 -0.0000
vt 1.0000 0.1562
vt 0.0000 0.1563
vt 0.0000 0.0000
vn 0.0000 0.0000 -1.0000
vn -0.0000 -0.0000 1.0000
vn 1.0000 0.0018 -0.0000
vn 0.7079 -0.7063 0.0000
vn 0.0018 -1.0000 -0.0000
vn -0.7063 -0.7079 0.0000
vn -1.0000 -0.0018 0.0000
vn -0.7079 0.7063 0.0000
vn -0.0018 1.0000 0.0000
vn 0.7063 0.7079 -0.0000
g GoldCoin_GoldCoin_Texture
usemtl Coin50Tex
s off
f 17/1/1 1/2/1 2/3/1
f 18/4/2 10/5/2 9/6/2
f 17/1/1 2/3/1 3/7/1
f 18/4/2 11/8/2 10/5/2
f 17/1/1 3/7/1 4/9/1
f 18/4/2 12/10/2 11/8/2
f 17/1/1 4/9/1 5/11/1
f 18/4/2 13/12/2 12/10/2
f 17/1/1 5/11/1 6/13/1
f 18/4/2 14/14/2 13/12/2
f 17/1/1 6/13/1 7/15/1
f 18/4/2 15/16/2 14/14/2
f 17/1/1 7/15/1 8/17/1
f 18/4/2 16/18/2 15/16/2
f 8/17/1 1/2/1 17/1/1
f 18/4/2 9/6/2 16/18/2
f 1/19/3 9/20/3 10/21/3 2/22/3
f 2/23/4 10/24/4 11/25/4 3/26/4
f 3/27/5 11/28/5 12/29/5 4/30/5
f 4/31/6 12/32/6 13/33/6 5/34/6
f 5/35/7 13/36/7 14/37/7 6/38/7
f 6/39/8 14/40/8 15/41/8 7/42/8
f 7/43/9 15/44/9 16/45/9 8/46/9
f 9/47/10 1/48/10 8/49/10 16/50/10
